<svg id="Grupo_257944" data-name="Grupo 257944" xmlns="http://www.w3.org/2000/svg" width="91.877" height="91.892" viewBox="0 0 91.877 91.892">
  <g id="Grupo_247844" data-name="Grupo 247844" transform="translate(0 0)">
    <path id="Trazado_262521" data-name="Trazado 262521" d="M40.532,42.9c.09-1.008-.4-1.514-1.355-1.794a23.3,23.3,0,0,1-8.243-3.9,1.322,1.322,0,0,0-2.213.716c-.809,4.017-.959,8.027.691,11.887a42.062,42.062,0,0,0,2.182,3.939l-1.568,3.092c-5.385-.884-10.257-2.885-13.284-8a1.32,1.32,0,0,0-1.623-.711,1.356,1.356,0,0,0-.971,1.576c.492,9.441,2.832,18.319,8.066,26.3a2,2,0,0,1,.2,1.845c-.558,2.139-1,4.315-1.357,6.5-.207,1.266.158,1.631,1.418,1.984a1.7,1.7,0,0,0,1.291-1.8,18.613,18.613,0,0,1,.273-2.595,12.642,12.642,0,0,1,3.625-7.317,4.928,4.928,0,0,1,4.684-1.469c2.745.677,4.16,2.762,5.243,5.147a.983.983,0,0,1-.113.711,20.526,20.526,0,0,0-1.3,14.961,1.31,1.31,0,0,1-.141.967c-2.238,3.256-6.127,3.633-8.728.671a20.049,20.049,0,0,1-2.654-4.544c-.408-.84-.849-1.33-1.8-1.258-1.022.646-1.167,1.031-.79,2.155A13.875,13.875,0,0,0,25.945,98.1a7.792,7.792,0,0,0,11.14-.283,3.09,3.09,0,0,0,.343-.518c4.2,7.226,10.523,7.016,14.441,2.947,1.883,3.1,4.241,5.624,8.166,5.639,3.948.016,6.326-2.484,8.235-5.643,2.21,2.206,4.775,3.366,7.888,2.637,3.045-.713,4.94-2.888,6.46-5.5a8.362,8.362,0,0,0,5.687,2.895,8.207,8.207,0,0,0,7.132-3.392A16.772,16.772,0,0,0,99,87.83a22.156,22.156,0,0,0-.629-8.351,2.125,2.125,0,0,1,.241-1.34,31.424,31.424,0,0,0,3.149-11.2,1.575,1.575,0,0,0-1.216-1.894,1.623,1.623,0,0,0-1.522,1.786,12.934,12.934,0,0,1-.2,1.729,27.648,27.648,0,0,1-2.048,7.025c-1.992-3.089-4.435-5.4-8.239-5.265-3.774.132-6.085,2.594-7.932,5.638-2.246-2.2-4.783-3.333-7.871-2.644-3.049.681-4.908,2.888-6.475,5.4-4.071-3.785-7.6-3.789-12.416-.047-1.538-2.5-3.4-4.663-6.415-5.352-3.114-.712-5.667.473-7.9,2.634-1.712-2.8-3.762-5.056-7.133-5.555-3.487-.516-5.938,1.3-8.09,3.814a47.847,47.847,0,0,1-7.06-20.124c.115.024.2.017.235.053a22.038,22.038,0,0,0,11.83,5.3c.505.081,1.3.03,1.457.318.587,1.054,1.781,1.686,1.971,3.013A7.947,7.947,0,0,0,35,67.179,15.63,15.63,0,0,0,41.743,71.2a34.149,34.149,0,0,0,13.7,1.086,32.761,32.761,0,0,0,9.858-2.272,15.437,15.437,0,0,0,7.93-6.655C75.788,58.741,74.925,53.3,71,50.128a33.044,33.044,0,0,0-4.3-2.565c-.294-.171-.614-.3-.957-.46,1.285-3.856,2.495-7.631,3.8-11.373a12.932,12.932,0,0,1,24.5.045,90.611,90.611,0,0,1,4.422,18.4c.151,1.152.513,1.49,1.675,1.575a1.414,1.414,0,0,0,1.035-1.8c-.289-1.782-.609-3.559-.847-5.348a1.228,1.228,0,0,1,.416-.98c1.4-.973,2.861-1.866,4.291-2.8,1.372-.9,1.316-2-.144-2.782-1.985-1.069-3.952-2.177-5.982-3.153a2.83,2.83,0,0,1-1.619-1.963,17.273,17.273,0,0,0-4.533-8.184c-.631-.6-1.3-1.145-2.024-1.774.464-.773.925-1.568,1.411-2.347a5.162,5.162,0,0,0-5.69-7.918c-3.268-3.576-6.439-3.59-9.086-.087a14.506,14.506,0,0,0-2.715.025,5.073,5.073,0,0,0-3.436,7.394c.513.965,1.116,1.881,1.625,2.73-1.236,1.288-2.509,2.469-3.61,3.794-1.64,1.973-2.337,4.419-3.124,6.807q-1.343,4.081-2.706,8.155c-.079.238-.178.47-.254.669C60.1,45.5,57.127,44.8,54.134,44.19c-2.873-.583-5.768-1.063-8.653-1.588a1.445,1.445,0,0,0-1.68.981c.035,1.26.372,1.56,1.861,1.844,4.714.9,9.44,1.747,14.129,2.762a22.693,22.693,0,0,1,8.824,3.543A7.639,7.639,0,0,1,70.75,62.2a13.287,13.287,0,0,1-7.562,5.7,37.122,37.122,0,0,1-16.995,1.53A16.537,16.537,0,0,1,38.3,66.473,6.2,6.2,0,0,1,35.4,62.2a3.831,3.831,0,0,0-1.425-2.836c-1.629-1.388-1.261-3.131.644-4.029a1.35,1.35,0,0,0,.247-2.5c-3.537-2.587-4.566-8.675-3.708-12.083.291.144.565.3.857.421q3.224,1.291,6.454,2.566a1.455,1.455,0,0,0,2.065-.835M52.438,90.455a15.4,15.4,0,0,1,2.633-8.747c2.883-4.14,7.161-4.122,10.028.036a15.725,15.725,0,0,1,2.6,9.25,15.588,15.588,0,0,1-2.653,9.139c-2.843,4.059-7.045,4.065-9.924.044a11.411,11.411,0,0,1-.674-1.06,17.14,17.14,0,0,1-2.014-8.662M38.067,87.792c.022-.393.018-1.108.109-1.81.416-3.2,1.38-6.182,3.754-8.5a5,5,0,0,1,7.359-.155,19.063,19.063,0,0,1,2.534,3.492,1.186,1.186,0,0,1-.049.971,21.159,21.159,0,0,0-1.3,14.9,1.685,1.685,0,0,1-.284,1.282c-2.49,3.113-6.037,3.226-8.72.275a11.345,11.345,0,0,1-1.544-2.214,17.046,17.046,0,0,1-1.857-8.242m44,.242c0,.194.007.388,0,.581-.155,3.526-.923,6.861-3.333,9.58-2.636,2.974-6.083,2.908-8.691-.067a1.513,1.513,0,0,1-.375-1.56,19.594,19.594,0,0,0-.86-13.618,3.215,3.215,0,0,1,.459-3.84,13.486,13.486,0,0,1,2.2-2.28,4.736,4.736,0,0,1,5.927,0,9.1,9.1,0,0,1,2.015,2.06,15.526,15.526,0,0,1,2.655,9.138m14.367-2.608a15.4,15.4,0,0,1-3.2,9.774c-2.626,3.177-6.148,3.194-8.859.1a1.488,1.488,0,0,1-.366-1.554,19.293,19.293,0,0,0-.85-13.519,3.306,3.306,0,0,1,.4-3.849c.078-.1.149-.211.224-.316,2.916-4.065,7.136-4.048,10,.055a16.316,16.316,0,0,1,2.653,9.308M75.2,25.343c.089.083,0,.03-.045-.046-.475-.768-.964-1.528-1.409-2.312a2.352,2.352,0,0,1,.318-3.093,2.412,2.412,0,0,1,3.108-.2c1.16.677,1.936.358,2.306-.948a2.452,2.452,0,0,1,2.311-1.986A2.4,2.4,0,0,1,84.2,18.724c.419,1.373,1.149,1.657,2.379.925a2.4,2.4,0,0,1,3.413,3.244c-.375.676-.847,1.3-1.192,1.991-.309.62-.63.725-1.283.449a13.137,13.137,0,0,0-6.711-1.039c-1.838.218-3.647.672-5.608,1.048m23.582,16.5,3.2,1.719-2.4,1.529-.8-3.247" transform="translate(-14.142 -13.994)"/>
    <path id="Trazado_262522" data-name="Trazado 262522" d="M118.133,92.979c-1.162-.085-1.523-.423-1.675-1.575a90.609,90.609,0,0,0-4.422-18.4,12.932,12.932,0,0,0-24.5-.045c-1.305,3.742-2.515,7.517-3.8,11.373.343.163.663.289.957.46A33.044,33.044,0,0,1,89,87.36c3.928,3.17,4.792,8.613,2.239,13.232a15.436,15.436,0,0,1-7.93,6.655,32.761,32.761,0,0,1-9.858,2.272,34.149,34.149,0,0,1-13.7-1.086A15.627,15.627,0,0,1,53,104.412a7.948,7.948,0,0,1-2.262-4.4c-.189-1.327-1.384-1.959-1.971-3.013-.16-.288-.951-.237-1.457-.318a22.038,22.038,0,0,1-11.83-5.3c-.04-.036-.119-.028-.235-.053a47.849,47.849,0,0,0,7.06,20.124c2.152-2.512,4.6-4.33,8.09-3.814,3.37.5,5.42,2.752,7.133,5.555,2.235-2.161,4.788-3.345,7.9-2.634,3.017.69,4.876,2.853,6.415,5.353,4.813-3.742,8.344-3.738,12.416.047,1.567-2.514,3.427-4.721,6.475-5.4,3.088-.69,5.625.448,7.871,2.644,1.847-3.044,4.158-5.507,7.932-5.638,3.8-.133,6.246,2.176,8.239,5.265a27.642,27.642,0,0,0,2.048-7.025,12.929,12.929,0,0,0,.2-1.729,1.623,1.623,0,0,1,1.523-1.786q.012-.911.023-1.821c-.725-.19-1.31-.512-1.358-1.377-.047-.83-.1-1.66-.172-2.488a1.5,1.5,0,0,1,1.19-1.8l-.094-1.819m-13.691-20a3.68,3.68,0,0,1,.073,7.36,3.68,3.68,0,1,1-.073-7.36" transform="translate(-32.143 -51.227)" fill="#f2a76b"/>
    <path id="Trazado_262523" data-name="Trazado 262523" d="M155.635,119.682a1.455,1.455,0,0,1-2.065.835q-3.231-1.272-6.454-2.566c-.291-.117-.565-.276-.857-.421-.859,3.408.17,9.5,3.708,12.084a1.35,1.35,0,0,1-.247,2.5c-1.905.9-2.273,2.641-.644,4.029a3.832,3.832,0,0,1,1.425,2.836,6.2,6.2,0,0,0,2.907,4.276,16.538,16.538,0,0,0,7.889,2.953,37.121,37.121,0,0,0,16.995-1.53,13.287,13.287,0,0,0,7.562-5.7,7.64,7.64,0,0,0-2.135-10.464,22.7,22.7,0,0,0-8.824-3.543c-4.689-1.015-9.416-1.862-14.129-2.762-1.489-.284-1.826-.585-1.861-1.845l-3.269-.686m15.849,6.447c1.865.5,3.74.958,5.589,1.507a1.184,1.184,0,0,1,.783,1.565,1.229,1.229,0,0,1-1.561.955q-2.685-.6-5.339-1.339a1.2,1.2,0,0,1-.9-1.5,1.44,1.44,0,0,1,1.424-1.185" transform="translate(-129.244 -90.78)" fill="#d58659"/>
    <path id="Trazado_262524" data-name="Trazado 262524" d="M279.249,259.184c.946-.072,1.387.418,1.8,1.258a20.054,20.054,0,0,0,2.654,4.544c2.6,2.962,6.489,2.585,8.728-.671a1.31,1.31,0,0,0,.141-.966,20.527,20.527,0,0,1,1.3-14.962.984.984,0,0,0,.113-.711c-1.084-2.385-2.5-4.47-5.243-5.147A4.927,4.927,0,0,0,284.052,244a12.641,12.641,0,0,0-3.625,7.317,18.573,18.573,0,0,0-.273,2.595,1.7,1.7,0,0,1-1.291,1.8l.385,3.472" transform="translate(-270.531 -183.38)" fill="#ededf9"/>
    <path id="Trazado_262525" data-name="Trazado 262525" d="M31.241,182.633a1.5,1.5,0,0,0-1.19,1.8c.074.828.125,1.658.172,2.488.049.866.633,1.187,1.358,1.377,1.178-.41,1.391-.708,1.338-1.969-.028-.671-.1-1.34-.145-2.011-.084-1.183-.355-1.481-1.533-1.683" transform="translate(54.843 -139.062)"/>
    <path id="Trazado_262526" data-name="Trazado 262526" d="M162.438,275.943a17.142,17.142,0,0,0,2.014,8.662,11.34,11.34,0,0,0,.674,1.06c2.879,4.021,7.08,4.015,9.924-.044a17.392,17.392,0,0,0,.049-18.388c-2.867-4.157-7.145-4.176-10.028-.036a15.4,15.4,0,0,0-2.633,8.747" transform="translate(-124.142 -199.482)" fill="#ededf9"/>
    <path id="Trazado_262527" data-name="Trazado 262527" d="M223.571,265.154a17.049,17.049,0,0,0,1.857,8.242,11.359,11.359,0,0,0,1.544,2.213c2.683,2.95,6.23,2.837,8.72-.275a1.684,1.684,0,0,0,.284-1.282,21.16,21.16,0,0,1,1.3-14.9,1.186,1.186,0,0,0,.049-.971,19.071,19.071,0,0,0-2.534-3.492,5,5,0,0,0-7.359.155c-2.375,2.319-3.338,5.3-3.754,8.5-.091.7-.087,1.417-.109,1.81" transform="translate(-199.646 -191.356)" fill="#dddde3"/>
    <path id="Trazado_262528" data-name="Trazado 262528" d="M120.524,265.416a15.529,15.529,0,0,0-2.656-9.138,9.1,9.1,0,0,0-2.014-2.06,4.736,4.736,0,0,0-5.927,0,13.5,13.5,0,0,0-2.2,2.28,3.215,3.215,0,0,0-.459,3.84,19.593,19.593,0,0,1,.86,13.618,1.512,1.512,0,0,0,.375,1.559c2.609,2.975,6.055,3.041,8.691.067,2.41-2.719,3.178-6.053,3.333-9.58.009-.193,0-.387,0-.581" transform="translate(-52.599 -191.377)" fill="#dddde3"/>
    <path id="Trazado_262529" data-name="Trazado 262529" d="M64.949,254.876a16.316,16.316,0,0,0-2.653-9.308c-2.859-4.1-7.079-4.12-10-.055-.075.105-.146.214-.224.316a3.305,3.305,0,0,0-.4,3.849,19.293,19.293,0,0,1,.85,13.519,1.488,1.488,0,0,0,.366,1.554c2.711,3.092,6.233,3.075,8.859-.1a15.4,15.4,0,0,0,3.2-9.774" transform="translate(17.342 -183.443)" fill="#ededf9"/>
    <path id="Trazado_262530" data-name="Trazado 262530" d="M76.694,33.271c1.961-.376,3.771-.83,5.608-1.048a13.136,13.136,0,0,1,6.711,1.039c.653.276.974.171,1.283-.45.344-.69.817-1.315,1.192-1.991a2.4,2.4,0,0,0-3.413-3.244c-1.23.732-1.959.448-2.379-.925a2.4,2.4,0,0,0-2.414-1.966,2.451,2.451,0,0,0-2.311,1.986c-.369,1.306-1.145,1.625-2.306.948a2.412,2.412,0,0,0-3.108.2,2.352,2.352,0,0,0-.318,3.093c.445.785.934,1.545,1.409,2.312.048.077.135.129.045.047" transform="translate(-15.637 -21.923)" fill="#f44f2f"/>
    <path id="Trazado_262531" data-name="Trazado 262531" d="M29.77,121.762l.8,3.247,2.4-1.529-3.2-1.719" transform="translate(54.869 -93.918)" fill="#ea4c2f"/>
    <path id="Trazado_262532" data-name="Trazado 262532" d="M79.353,98.2a3.68,3.68,0,1,0,.073,7.36,3.68,3.68,0,0,0-.073-7.36m.245,4.791h-.447c-.252-.378-.742-.792-.692-1.124a1.4,1.4,0,0,1,.965-.888c.238-.043.814.547.834.877.021.364-.42.755-.66,1.135" transform="translate(-7.054 -76.441)"/>
    <path id="Trazado_262533" data-name="Trazado 262533" d="M182.821,150.811A1.44,1.44,0,0,0,181.4,152a1.2,1.2,0,0,0,.9,1.5q2.652.734,5.339,1.339a1.229,1.229,0,0,0,1.561-.955,1.184,1.184,0,0,0-.783-1.565c-1.849-.549-3.724-1.01-5.589-1.507" transform="translate(-140.582 -115.462)"/>
    <path id="Trazado_262534" data-name="Trazado 262534" d="M87.55,110.959c.24-.379.682-.771.66-1.134-.02-.33-.6-.92-.834-.877a1.4,1.4,0,0,0-.965.888c-.05.333.44.746.692,1.124h.447" transform="translate(-15.005 -84.413)" fill="#e5e4f1"/>
  </g>
</svg>
